<?xml version="1.0" standalone="no"?>
<!DOCTYPE svg PUBLIC "-//W3C//DTD SVG 20010904//EN"
 "http://www.w3.org/TR/2001/REC-SVG-20010904/DTD/svg10.dtd">
<svg version="1.0" xmlns="http://www.w3.org/2000/svg"
 width="1024.000000pt" height="1024.000000pt" viewBox="0 0 1024.000000 1024.000000"
 preserveAspectRatio="xMidYMid meet">
<metadata>
Created by potrace 1.11, written by Peter Selinger 2001-2013
</metadata>
<g transform="translate(0.000000,1024.000000) scale(0.100000,-0.100000)"
fill="#000000" stroke="none">
<path d="M4735 10225 c-841 -62 -1663 -335 -2369 -788 -1132 -725 -1937 -1865
-2235 -3162 -206 -900 -165 -1852 116 -2718 225 -694 564 -1289 1044 -1832
111 -126 356 -369 474 -471 376 -325 816 -606 1257 -803 1260 -563 2686 -597
3968 -96 643 251 1208 619 1709 1109 529 520 922 1111 1186 1786 501 1282 467
2708 -96 3968 -197 441 -478 881 -803 1257 -102 118 -345 363 -471 474 -765
676 -1674 1095 -2691 1241 -326 47 -745 60 -1089 35z"/>
</g>
</svg>
